<svg xmlns="http://www.w3.org/2000/svg" xmlns:xlink="http://www.w3.org/1999/xlink" viewBox="0 0 66 66" fill="#fff" fill-rule="evenodd" stroke="#000" stroke-linecap="round" stroke-linejoin="round"><style><![CDATA[.B{fill:#ff6c37}]]></style><use xlink:href="#A" x=".5" y=".5"/><symbol id="A" overflow="visible"><g stroke="none" fill-rule="nonzero"><path d="M57.328 12.443A32 32 0 0 0 .261 27.927a32 32 0 0 0 15.831 31.84 32 32 0 0 0 35.474-2.444c13.98-10.804 16.56-30.895 5.76-44.88z" class="B"/><path d="M42.794 20.391l-13.493 13.6-3.813-3.92c13.28-13.28 14.613-12.08 17.307-9.68z"/><path d="M29.301 34.363a.48.48 0 0 1-.32-.133l-3.84-3.84a.48.48 0 0 1 0-.667c13.093-13.093 14.88-12.48 17.973-9.68.105.084.164.212.16.347.02.13-.03.263-.133.347L29.648 34.231c-.095.087-.218.134-.347.133zm-3.147-4.293l3.147 3.147 12.8-12.8a2.88 2.88 0 0 0-3.787-.64c-2.32 1.04-6.053 4.213-12.16 10.293z" class="B"/><path d="M33.168 37.751l-3.68-3.76 13.493-13.334c3.627 3.547-1.76 9.467-9.813 17.093z"/><path d="M33.168 38.231a.56.56 0 0 1-.32-.133l-3.76-3.68a.56.56 0 0 1 0-.427c-.04-.112-.04-.235 0-.347l13.493-13.493c.195-.183.498-.183.693 0 .885.814 1.37 1.972 1.333 3.173 0 3.6-4.107 8.133-11.093 14.747a.56.56 0 0 1-.347.16zm-2.987-4.24l3.013 3.012c5.333-5.04 10.427-10.24 10.453-13.76a3.04 3.04 0 0 0-.693-2.053z" class="B"/><path d="M25.594 30.151l2.667 2.667a.16.16 0 0 1 0 .24l-5.627 1.2c-.233.05-.47-.062-.582-.272s-.07-.47.102-.635l3.28-3.253s.107 0 .16.053z"/><path d="M22.501 34.791a1.04 1.04 0 0 1-.88-.507c-.21-.397-.135-.886.187-1.2l3.253-3.28a.64.64 0 0 1 .853 0l2.667 2.667a.59.59 0 0 1 .16.587.62.62 0 0 1-.453.427l-5.627 1.2zm2.987-4.053l-3.013 3.013 4.987-1.067zm.24-.24z" class="B"/><path d="M49.968 12.896c-1.93-1.862-4.962-1.94-6.986-.183s-2.37 4.773-.794 6.943 4.547 2.778 6.847 1.4l-3.627-3.627z"/><path d="M46.368 22.283a5.65 5.65 0 0 1-5.156-3.508c-.86-2.098-.384-4.506 1.2-6.118a5.71 5.71 0 0 1 8 0c.102.086.16.213.16.347a.46.46 0 0 1-.16.347l-4.32 4.08 3.28 3.227a.45.45 0 0 1 .133.4.48.48 0 0 1-.213.347 5.8 5.8 0 0 1-2.933.88zm0-10.347c-1.9.01-3.6 1.153-4.313 2.9s-.325 3.758 1.007 5.1c1.356 1.363 3.4 1.755 5.173.987l-3.147-3.147c-.105-.084-.164-.212-.16-.347.004-.125.062-.242.16-.32l4.16-4.187c-.827-.634-1.838-.98-2.88-.987z" class="B"/><path d="M50.048 12.977l-4.56 4.533 3.627 3.627c.365-.21.705-.46 1.013-.747 1.976-2.1 1.94-5.368-.08-7.413z"/><path d="M49.034 21.537a.4.4 0 0 1-.32-.133l-3.627-3.627c-.105-.084-.164-.212-.16-.347.004-.125.062-.242.16-.32l4.533-4.453a.48.48 0 0 1 .8 0 5.6 5.6 0 0 1 0 8 4.88 4.88 0 0 1-1.067.853.43.43 0 0 1-.32.027zm-2.933-4.106l3.013 3.013c.207-.145.404-.306.587-.48a4.72 4.72 0 0 0 1.387-3.333 4.58 4.58 0 0 0-1.147-3.04z" class="B"/><path d="M43.354 20.951a1.95 1.95 0 0 0-2.667 0L28.608 33.003l2 2.027 12.773-11.2a1.97 1.97 0 0 0 .61-1.446c-.006-.546-.236-1.065-.637-1.434z"/><path d="M30.501 35.511a.48.48 0 0 1-.32-.133l-2.027-2.027a.48.48 0 0 1 0-.667l12.08-12.027c.958-.956 2.51-.956 3.467 0a2.46 2.46 0 0 1 .72 1.813 2.51 2.51 0 0 1-.827 1.76l-12.773 11.2c-.093.066-.207.094-.32.08zm-1.413-2.508l1.333 1.36 12.533-10.907c.31-.27.495-.656.507-1.067a1.43 1.43 0 0 0-.453-1.093c-.583-.58-1.524-.58-2.107 0z" class="B"/><path d="M19.248 46.737a.27.27 0 0 0 0 .32l.533 2.32c.046.277-.087.553-.332.7a.65.65 0 0 1-.762-.077l-3.653-3.52 11.387-11.477h3.947l2.667 2.667a60.54 60.54 0 0 1-13.787 9.067z"/><path d="M19.008 50.657c-.302-.006-.6-.13-.8-.347l-3.493-3.493c-.105-.084-.164-.212-.16-.347.004-.125.062-.242.16-.32l11.466-11.493a.45.45 0 0 1 .24-.133h3.973a.48.48 0 0 1 .32 0l2.667 2.667c.103.095.153.235.133.373a.43.43 0 0 1-.16.347l-.213.187c-4.177 3.482-8.773 6.429-13.68 8.773l.507 2.16a1.15 1.15 0 0 1-1.093 1.413zm-3.253-4.187l3.146 3.173a.16.16 0 0 0 .213 0 .16.16 0 0 0 0-.187l-.533-2.32c-.086-.343.08-.7.4-.853 4.775-2.312 9.252-5.196 13.333-8.587l-2.187-2.187h-3.573zm3.84.48z" class="B"/><path d="M12.288 49.217l2.667-2.667 4.107 4.107-6.533-.453c-.23-.017-.425-.18-.48-.406a.53.53 0 0 1 .24-.58z"/><path d="M19.141 51.057l-6.507-.453a1.03 1.03 0 0 1-.854-.653 1.02 1.02 0 0 1 .214-1.054l2.667-2.667a.48.48 0 0 1 .667 0l4.08 4.08a.45.45 0 0 1 0 .533c-.062.1-.156.175-.267.213zm-6.507-1.493l5.333.347-2.933-2.747z" class="B"/><path d="M30.741 35.325l-5.387.827 3.12-3.093z"/><path d="M25.354 36.657c-.183.005-.35-.1-.427-.267a.45.45 0 0 1 0-.533l3.093-3.12c.195-.183.498-.183.693 0l2.268 2.266a.45.45 0 0 1 0 .48.47.47 0 0 1-.373.347l-5.333.827zm3.12-2.907l-1.733 1.733 2.987-.453z" class="B"/><path d="M30.741 35.323l-3.76.48a.48.48 0 0 1-.453-.8l1.947-1.947z"/><path d="M26.874 36.311c-.355-.003-.68-.197-.853-.507a.96.96 0 0 1 .16-1.147l1.947-1.947c.195-.183.498-.183.693 0l2.267 2.267a.48.48 0 0 1-.293.827l-3.733.48zm0-.987l2.827-.347-1.253-1.253-1.6 1.6zm23.2-19.28a.4.4 0 0 0-.507-.16.37.37 0 0 0-.186.22c-.03.095-.02.198.026.287.187.393.135.858-.133 1.2-.07.066-.1.157-.1.253a.38.38 0 0 0 .1.253.29.29 0 0 0 .213 0 .35.35 0 0 0 .347-.107 1.84 1.84 0 0 0 .24-1.947z" class="B"/></g></symbol></svg>